<svg width="138" height="58" viewBox="0 0 138 58" fill="none" xmlns="http://www.w3.org/2000/svg">
<g filter="url(#filter0_d_205_865)">
<rect x="18" y="12" width="102" height="34" rx="5.25" fill="#2D2D2D"/>
<path d="M55.7732 22.2343C55.7852 22.4771 55.7477 22.7197 55.663 22.9475C55.5782 23.1753 55.448 23.3834 55.2802 23.5593C55.0922 23.7542 54.8652 23.9073 54.6139 24.0085C54.3627 24.1097 54.0929 24.1567 53.8222 24.1465C53.5498 24.1489 53.2797 24.0969 53.0277 23.9934C52.7757 23.89 52.5469 23.7372 52.3548 23.544C52.1627 23.3509 52.0111 23.1213 51.909 22.8688C51.8069 22.6162 51.7563 22.3458 51.7602 22.0734C51.7564 21.8011 51.807 21.5306 51.9091 21.2781C52.0112 21.0255 52.1627 20.7959 52.3548 20.6028C52.5469 20.4096 52.7757 20.2568 53.0277 20.1533C53.2797 20.0498 53.5498 19.9977 53.8222 20.0001C54.1023 19.9992 54.3795 20.0559 54.6368 20.1664C54.8758 20.2633 55.0885 20.4153 55.2577 20.6099L54.9088 20.9591C54.7758 20.8026 54.6087 20.6787 54.4203 20.5971C54.2319 20.5154 54.0273 20.4782 53.8222 20.4881C53.6158 20.4871 53.4112 20.5277 53.2208 20.6075C53.0305 20.6874 52.8582 20.8048 52.7142 20.9529C52.5703 21.1009 52.4578 21.2764 52.3833 21.469C52.3089 21.6615 52.274 21.8671 52.2809 22.0734C52.276 22.3825 52.3629 22.686 52.5308 22.9456C52.6986 23.2052 52.9397 23.4091 53.2236 23.5314C53.5074 23.6537 53.8212 23.689 54.1251 23.6328C54.4291 23.5766 54.7095 23.4314 54.9308 23.2156C55.1344 22.9961 55.2525 22.7108 55.2634 22.4116H53.8222V21.9349H55.7454C55.7636 22.0336 55.7729 22.1339 55.7732 22.2343Z" fill="white" stroke="white" stroke-width="0.175" stroke-miterlimit="10"/>
<path d="M58.8221 20.5766H57.0146V21.835H58.6445V22.3118H57.0146V23.5702H58.8221V24.0579H56.5049V20.0889H58.8221V20.5766Z" fill="white" stroke="white" stroke-width="0.175" stroke-miterlimit="10"/>
<path d="M60.9729 24.0579H60.4626V20.5766H59.354V20.0889H62.0815V20.5766H60.9729V24.0579Z" fill="white" stroke="white" stroke-width="0.175" stroke-miterlimit="10"/>
<path d="M64.0549 24.0579V20.0889H64.5646V24.0579H64.0549Z" fill="white" stroke="white" stroke-width="0.175" stroke-miterlimit="10"/>
<path d="M66.8269 24.0579H66.3165V20.5766H65.208V20.0889H67.9354V20.5766H66.8269V24.0579Z" fill="white" stroke="white" stroke-width="0.175" stroke-miterlimit="10"/>
<path d="M73.0987 23.545C72.7123 23.9301 72.1891 24.1464 71.6435 24.1464C71.098 24.1464 70.5748 23.9301 70.1884 23.545C69.9973 23.3514 69.8471 23.1213 69.7466 22.8685C69.6462 22.6157 69.5976 22.3453 69.6038 22.0734C69.5976 21.8014 69.6462 21.531 69.7466 21.2782C69.8471 21.0254 69.9973 20.7953 70.1884 20.6018C70.3794 20.4108 70.6061 20.2593 70.8557 20.156C71.1052 20.0528 71.3727 19.9998 71.6428 20C71.9129 20.0002 72.1803 20.0537 72.4296 20.1574C72.679 20.2611 72.9055 20.413 73.0961 20.6044C73.2873 20.7974 73.4379 21.0269 73.5387 21.2793C73.6396 21.5316 73.6888 21.8017 73.6833 22.0734C73.6893 22.3453 73.6407 22.6157 73.5402 22.8684C73.4398 23.1212 73.2896 23.3513 73.0987 23.545ZM70.565 23.2126C70.8511 23.4982 71.2389 23.6587 71.6432 23.6587C72.0475 23.6587 72.4353 23.4982 72.7214 23.2126C72.8681 23.0624 72.9829 22.884 73.0587 22.6882C73.1346 22.4924 73.1699 22.2832 73.1626 22.0734C73.1699 21.8635 73.1346 21.6544 73.0587 21.4585C72.9829 21.2627 72.8681 21.0843 72.7214 20.9341C72.4353 20.6485 72.0475 20.4881 71.6432 20.4881C71.2389 20.4881 70.8511 20.6485 70.565 20.9341C70.4185 21.0844 70.3039 21.2629 70.2282 21.4587C70.1525 21.6545 70.1172 21.8636 70.1245 22.0734C70.1172 22.2832 70.1525 22.4923 70.2282 22.688C70.3039 22.8838 70.4185 23.0623 70.565 23.2126Z" fill="white" stroke="white" stroke-width="0.175" stroke-miterlimit="10"/>
<path d="M74.3989 24.0579V20.0889H75.0198L76.9487 23.1765H76.9707L76.9487 22.4116V20.0889H77.4591V24.0579H76.9267L74.9086 20.8208H74.8867L74.9086 21.5857V24.0579H74.3989Z" fill="white" stroke="white" stroke-width="0.175" stroke-miterlimit="10"/>
<path d="M69.4778 29.8473C68.9218 29.8494 68.3789 30.0162 67.9176 30.3266C67.4563 30.6371 67.0974 31.0772 66.8861 31.5915C66.6748 32.1058 66.6206 32.6712 66.7303 33.2162C66.8401 33.7613 67.1089 34.2616 67.5028 34.654C67.8967 35.0464 68.3981 35.3133 68.9435 35.421C69.489 35.5287 70.0542 35.4724 70.5676 35.2591C71.0811 35.0458 71.5199 34.6852 71.8286 34.2228C72.1373 33.7603 72.302 33.2168 72.302 32.6608C72.3074 32.2889 72.2381 31.9197 72.0979 31.5752C71.9578 31.2307 71.7498 30.9178 71.4863 30.6554C71.2228 30.3929 70.9092 30.1861 70.5642 30.0472C70.2191 29.9084 69.8497 29.8404 69.4778 29.8473ZM69.4778 34.3659C69.1354 34.3903 68.7936 34.3111 68.4968 34.1385C68.2001 33.9659 67.9622 33.708 67.8141 33.3983C67.666 33.0886 67.6145 32.7415 67.6664 32.4022C67.7184 32.0629 67.8713 31.747 68.1052 31.4958C68.3391 31.2446 68.6433 31.0696 68.9781 30.9937C69.3129 30.9177 69.6627 30.9444 69.9822 31.0701C70.3016 31.1958 70.5758 31.4147 70.7691 31.6984C70.9623 31.9822 71.0657 32.3175 71.0657 32.6608C71.0761 32.8776 71.043 33.0944 70.9683 33.2983C70.8937 33.5022 70.779 33.689 70.6311 33.8479C70.4831 34.0068 70.3048 34.1345 70.1068 34.2235C69.9087 34.3124 69.6949 34.3609 69.4778 34.3659ZM63.3169 29.8473C62.7609 29.8494 62.218 30.0162 61.7567 30.3266C61.2954 30.637 60.9365 31.0772 60.7251 31.5915C60.5138 32.1058 60.4596 32.6711 60.5694 33.2162C60.6791 33.7613 60.9479 34.2616 61.3418 34.654C61.7357 35.0464 62.2371 35.3133 62.7826 35.421C63.328 35.5287 63.8932 35.4724 64.4067 35.2591C64.9202 35.0459 65.3589 34.6852 65.6676 34.2228C65.9763 33.7603 66.141 33.2168 66.141 32.6608C66.1465 32.2889 66.0771 31.9197 65.937 31.5752C65.7969 31.2307 65.5889 30.9179 65.3254 30.6554C65.0619 30.3929 64.7483 30.1861 64.4033 30.0473C64.0582 29.9084 63.6888 29.8404 63.3169 29.8473ZM63.3169 34.3659C62.9745 34.3903 62.6327 34.3111 62.3359 34.1385C62.0392 33.9659 61.8013 33.708 61.6532 33.3983C61.5051 33.0886 61.4536 32.7415 61.5056 32.4022C61.5575 32.0629 61.7104 31.747 61.9443 31.4958C62.1783 31.2446 62.4824 31.0696 62.8172 30.9937C63.152 30.9177 63.5019 30.9444 63.8213 31.0701C64.1407 31.1958 64.4149 31.4147 64.6082 31.6984C64.8014 31.9822 64.9048 32.3175 64.9048 32.6608C64.9152 32.8776 64.8821 33.0944 64.8075 33.2983C64.7328 33.5022 64.6181 33.6891 64.4702 33.8479C64.3222 34.0068 64.144 34.1345 63.9459 34.2235C63.7478 34.3124 63.534 34.3609 63.3169 34.3659ZM55.9882 30.7106V31.9041H58.8444C58.8032 32.464 58.5741 32.9935 58.1943 33.4068C57.9081 33.6986 57.5639 33.9271 57.1839 34.0776C56.8039 34.2281 56.3966 34.2973 55.9882 34.2807C55.1534 34.2694 54.3566 33.9298 53.7702 33.3354C53.1838 32.7411 52.8551 31.9397 52.8551 31.1048C52.8551 30.2699 53.1838 29.4686 53.7702 28.8742C54.3566 28.2799 55.1534 27.9403 55.9882 27.929C56.7901 27.9185 57.5637 28.2249 58.141 28.7816L58.9829 27.9397C58.589 27.5497 58.1213 27.2423 57.607 27.0355C57.0928 26.8287 56.5424 26.7267 55.9882 26.7354C55.4091 26.7269 54.834 26.8337 54.2965 27.0495C53.759 27.2653 53.2697 27.5858 52.8572 27.9924C52.4446 28.399 52.117 28.8835 51.8934 29.4179C51.6698 29.9522 51.5547 30.5256 51.5547 31.1048C51.5547 31.684 51.6698 32.2575 51.8934 32.7918C52.117 33.3261 52.4446 33.8107 52.8572 34.2172C53.2697 34.6238 53.759 34.9443 54.2965 35.1601C54.834 35.3759 55.4091 35.4827 55.9882 35.4743C56.5541 35.4978 57.1185 35.4006 57.644 35.1893C58.1695 34.978 58.6441 34.6574 59.0362 34.2487C59.7324 33.4888 60.1034 32.4866 60.07 31.4566C60.0727 31.2064 60.0513 30.9566 60.006 30.7106H55.9882ZM85.96 31.6377C85.7909 31.1281 85.4691 30.6829 85.0381 30.3626C84.6072 30.0422 84.0882 29.8623 83.5514 29.8473C83.19 29.8495 82.8327 29.9251 82.5012 30.0693C82.1697 30.2135 81.8709 30.4235 81.6229 30.6865C81.3749 30.9495 81.1827 31.26 81.0581 31.5993C80.9335 31.9387 80.879 32.2998 80.8979 32.6608C80.8897 33.0307 80.9562 33.3984 81.0934 33.742C81.2306 34.0857 81.4356 34.3981 81.6962 34.6607C81.9568 34.9234 82.2677 35.1308 82.6103 35.2705C82.9528 35.4103 83.3201 35.4796 83.69 35.4743C84.1535 35.4769 84.6104 35.3643 85.0196 35.1466C85.4288 34.929 85.7776 34.6131 86.0345 34.2274L85.0754 33.588C84.9317 33.8266 84.7285 34.0238 84.4856 34.1602C84.2427 34.2966 83.9686 34.3675 83.69 34.3659C83.4034 34.3769 83.1201 34.3015 82.8768 34.1495C82.6336 33.9974 82.4416 33.7758 82.3259 33.5134L86.0879 31.9574L85.96 31.6377ZM82.1234 32.5756C82.1102 32.3708 82.1379 32.1654 82.205 31.9715C82.2721 31.7776 82.3772 31.599 82.5141 31.4461C82.651 31.2933 82.8171 31.1693 83.0025 31.0815C83.188 30.9936 83.3891 30.9436 83.5941 30.9344C83.8075 30.9203 84.0204 30.9694 84.2061 31.0756C84.3918 31.1817 84.5422 31.3401 84.6385 31.5312L82.1234 32.5756ZM79.0648 35.3037H80.301V27.0338H79.0648V35.3037ZM77.0399 30.4761H76.9973C76.8094 30.2719 76.58 30.1101 76.3245 30.0017C76.069 29.8933 75.7934 29.8406 75.5159 29.8473C74.7904 29.8782 74.1049 30.1881 73.6025 30.7123C73.1001 31.2366 72.8196 31.9347 72.8196 32.6608C72.8196 33.3869 73.1001 34.085 73.6025 34.6092C74.1049 35.1335 74.7904 35.4434 75.5159 35.4743C75.7945 35.4817 76.0713 35.4283 76.3271 35.3179C76.5829 35.2075 76.8116 35.0427 76.9973 34.8349H77.0399V35.2398C77.0399 36.3163 76.4645 36.8917 75.5372 36.8917C75.2282 36.8843 74.9284 36.7851 74.676 36.6067C74.4236 36.4283 74.23 36.1787 74.1199 35.8899L73.0435 36.3376C73.2463 36.8315 73.5921 37.2536 74.0364 37.5498C74.4806 37.846 75.0033 38.0028 75.5372 38.0001C76.9866 38.0001 78.2122 37.1475 78.2122 35.0693V30.0178H77.0399V30.4761ZM75.6226 34.3659C75.1953 34.3297 74.7971 34.1344 74.507 33.8186C74.2169 33.5028 74.0559 33.0896 74.0559 32.6608C74.0559 32.232 74.2169 31.8188 74.507 31.503C74.7971 31.1872 75.1953 30.9919 75.6226 30.9557C75.8351 30.966 76.0434 31.0191 76.2351 31.1117C76.4267 31.2043 76.5977 31.3346 76.738 31.4947C76.8782 31.6548 76.9847 31.8415 77.0512 32.0437C77.1178 32.2458 77.1429 32.4593 77.1252 32.6714C77.1418 32.8822 77.1157 33.0942 77.0485 33.2946C76.9814 33.4951 76.8744 33.68 76.7341 33.8382C76.5939 33.9963 76.4231 34.1246 76.2321 34.2153C76.0411 34.306 75.8338 34.3572 75.6226 34.3659ZM91.7508 27.034H88.793V35.3037H90.0272V32.1706H91.7508C92.0999 32.1897 92.4492 32.1375 92.7775 32.0171C93.1057 31.8966 93.406 31.7106 93.6599 31.4702C93.9138 31.2298 94.116 30.9402 94.2542 30.619C94.3924 30.2979 94.4637 29.9519 94.4637 29.6023C94.4637 29.2526 94.3924 28.9067 94.2542 28.5855C94.116 28.2644 93.9138 27.9747 93.6599 27.7344C93.406 27.494 93.1057 27.3079 92.7775 27.1875C92.4492 27.0671 92.0999 27.0148 91.7508 27.034ZM91.7826 31.0197H90.0272V28.1849H91.7826C91.9713 28.181 92.1587 28.2148 92.3341 28.2843C92.5095 28.3537 92.6693 28.4575 92.804 28.5895C92.9388 28.7215 93.0459 28.8791 93.119 29.053C93.1921 29.2269 93.2297 29.4137 93.2297 29.6023C93.2297 29.791 93.1921 29.9777 93.119 30.1516C93.0459 30.3255 92.9388 30.4831 92.804 30.6151C92.6693 30.7471 92.5095 30.8509 92.3341 30.9204C92.1587 30.9898 91.9713 31.0236 91.7826 31.0197ZM99.411 29.8321C98.9605 29.8058 98.5121 29.9116 98.1209 30.1365C97.7296 30.3614 97.4126 30.6956 97.2086 31.0981L98.3045 31.5556C98.4131 31.3559 98.5776 31.1921 98.7779 31.0844C98.9782 30.9766 99.2056 30.9297 99.4322 30.9492C99.7453 30.9186 100.058 31.0134 100.301 31.2129C100.544 31.4123 100.699 31.7001 100.73 32.0131V32.0982C100.334 31.8876 99.8917 31.778 99.4428 31.779C98.2619 31.779 97.0597 32.428 97.0597 33.6409C97.0712 33.8965 97.1339 34.1472 97.2441 34.3781C97.3543 34.6091 97.5098 34.8155 97.7013 34.9852C97.8928 35.1549 98.1164 35.2843 98.3589 35.3659C98.6015 35.4475 98.8579 35.4796 99.113 35.4602C99.4238 35.4785 99.7338 35.4131 100.011 35.2709C100.288 35.1287 100.521 34.9149 100.688 34.6516H100.73V35.29H101.922V32.1195C101.922 30.6513 100.826 29.8321 99.411 29.8321ZM99.262 34.3643C98.8577 34.3643 98.2938 34.1623 98.2938 33.6622C98.2938 33.0239 98.996 32.7791 99.6025 32.7791C99.9964 32.7686 100.386 32.8642 100.73 33.0557C100.685 33.4144 100.511 33.7446 100.241 33.9852C99.9714 34.2257 99.6235 34.3604 99.262 34.3643ZM106.263 30.0129L104.848 33.5983H104.805L103.337 30.0129H102.007L104.209 35.024L102.954 37.8115H104.241L107.635 30.0129H106.263ZM95.1446 35.3037H96.3787V27.034H95.1446V35.3037Z" fill="white"/>
<path d="M31.3085 20.4448C31.0916 20.7041 30.9821 21.0366 31.0024 21.3741V36.0041C30.982 36.3416 31.0916 36.6741 31.3085 36.9334L31.3575 36.9811L39.5529 28.7858V28.5924L31.3575 20.3967L31.3085 20.4448Z" fill="url(#paint0_linear_205_865)"/>
<path d="M42.2844 31.5187L39.5527 28.7858V28.5924L42.285 25.8601L42.3466 25.8952L45.5832 27.7343C46.5078 28.2595 46.5078 29.119 45.5832 29.6445L42.3466 31.4836L42.2844 31.5187Z" fill="url(#paint1_linear_205_865)"/>
<path d="M42.3468 31.4834L39.553 28.6892L31.3086 36.9335C31.497 37.0997 31.7375 37.1947 31.9886 37.2021C32.2397 37.2095 32.4854 37.1289 32.6833 36.9741L42.3468 31.4834Z" fill="url(#paint2_linear_205_865)"/>
<path d="M42.3468 25.895L32.6833 20.4042C32.4854 20.2495 32.2397 20.1688 31.9886 20.1763C31.7375 20.1837 31.497 20.2787 31.3086 20.4448L39.553 28.6892L42.3468 25.895Z" fill="url(#paint3_linear_205_865)"/>
<path opacity="0.2" d="M42.2852 31.4219L32.6833 36.8775C32.493 37.0223 32.2608 37.1014 32.0218 37.1026C31.7827 37.1039 31.5497 37.0274 31.3579 36.8846L31.3086 36.9339L31.3575 36.9816L31.3579 36.9812C31.5496 37.1241 31.7826 37.2007 32.0218 37.1994C32.2609 37.1981 32.4931 37.1191 32.6833 36.9742L42.3468 31.4834L42.2852 31.4219Z" fill="#3B3B3B"/>
<path opacity="0.12" d="M31.3085 36.8371C31.0916 36.5777 30.9821 36.2452 31.0024 35.9077V36.0044C30.9821 36.3419 31.0916 36.6743 31.3085 36.9337L31.3578 36.8844L31.3085 36.8371Z" fill="#3B3B3B"/>
<path opacity="0.12" d="M45.5834 29.5476L42.2852 31.4218L42.3467 31.4833L45.5834 29.6443C45.7738 29.5616 45.9385 29.4295 46.0605 29.2616C46.1824 29.0936 46.2571 28.8961 46.2768 28.6895C46.2359 28.8766 46.1519 29.0515 46.0315 29.2005C45.9112 29.3495 45.7577 29.4683 45.5834 29.5476Z" fill="#3B3B3B"/>
<path opacity="0.25" d="M32.6833 20.5012L45.5835 27.8307C45.7579 27.91 45.9114 28.0289 46.0318 28.1779C46.1521 28.327 46.2361 28.502 46.2769 28.6892C46.2574 28.4825 46.1827 28.2849 46.0607 28.1168C45.9388 27.9488 45.7739 27.8166 45.5835 27.7341L32.6833 20.4046C31.7587 19.8793 31.0024 20.3156 31.0024 21.3745V21.4712C31.0024 20.4123 31.7587 19.976 32.6833 20.5012Z" fill="white"/>
</g>
<defs>
<filter id="filter0_d_205_865" x="0.5" y="-1.125" width="137" height="69" filterUnits="userSpaceOnUse" color-interpolation-filters="sRGB">
<feFlood flood-opacity="0" result="BackgroundImageFix"/>
<feColorMatrix in="SourceAlpha" type="matrix" values="0 0 0 0 0 0 0 0 0 0 0 0 0 0 0 0 0 0 127 0" result="hardAlpha"/>
<feOffset dy="4.375"/>
<feGaussianBlur stdDeviation="8.75"/>
<feColorMatrix type="matrix" values="0 0 0 0 0.0745098 0 0 0 0 0.305882 0 0 0 0 0.290196 0 0 0 0.18 0"/>
<feBlend mode="normal" in2="BackgroundImageFix" result="effect1_dropShadow_205_865"/>
<feBlend mode="normal" in="SourceGraphic" in2="effect1_dropShadow_205_865" result="shape"/>
</filter>
<linearGradient id="paint0_linear_205_865" x1="38.8261" y1="21.2198" x2="27.7245" y2="32.3215" gradientUnits="userSpaceOnUse">
<stop stop-color="#00A0FF"/>
<stop offset="0.00657" stop-color="#00A1FF"/>
<stop offset="0.2601" stop-color="#00BEFF"/>
<stop offset="0.5122" stop-color="#00D2FF"/>
<stop offset="0.7604" stop-color="#00DFFF"/>
<stop offset="1" stop-color="#00E3FF"/>
</linearGradient>
<linearGradient id="paint1_linear_205_865" x1="46.787" y1="28.6894" x2="30.7805" y2="28.6894" gradientUnits="userSpaceOnUse">
<stop stop-color="#FFE000"/>
<stop offset="0.4087" stop-color="#FFBD00"/>
<stop offset="0.7754" stop-color="#FFA500"/>
<stop offset="1" stop-color="#FF9C00"/>
</linearGradient>
<linearGradient id="paint2_linear_205_865" x1="40.8287" y1="30.2074" x2="25.7739" y2="45.2622" gradientUnits="userSpaceOnUse">
<stop stop-color="#FF3A44"/>
<stop offset="1" stop-color="#C31162"/>
</linearGradient>
<linearGradient id="paint3_linear_205_865" x1="29.2327" y1="15.5749" x2="35.9553" y2="22.2975" gradientUnits="userSpaceOnUse">
<stop stop-color="#32A071"/>
<stop offset="0.0685" stop-color="#2DA771"/>
<stop offset="0.4762" stop-color="#15CF74"/>
<stop offset="0.8009" stop-color="#06E775"/>
<stop offset="1" stop-color="#00F076"/>
</linearGradient>
</defs>
</svg>
