<svg width="138" height="58" viewBox="0 0 138 58" fill="none" xmlns="http://www.w3.org/2000/svg">
<g filter="url(#filter0_d_205_886)">
<rect x="18" y="12" width="102" height="34" rx="5.25" fill="#2D2D2D"/>
<path d="M43.756 28.5234C43.7637 27.9237 43.923 27.3358 44.219 26.8142C44.5151 26.2926 44.9382 25.8544 45.4491 25.5403C45.1245 25.0768 44.6964 24.6954 44.1986 24.4263C43.7009 24.1572 43.1472 24.0079 42.5817 23.9902C41.3752 23.8635 40.2056 24.7121 39.5908 24.7121C38.9642 24.7121 38.0176 24.0028 36.9983 24.0237C36.3391 24.045 35.6965 24.2367 35.1333 24.5802C34.5702 24.9237 34.1056 25.4071 33.7848 25.9835C32.3953 28.3892 33.4318 31.9247 34.7628 33.8692C35.4287 34.8214 36.207 35.885 37.2253 35.8473C38.2218 35.806 38.594 35.2119 39.7969 35.2119C40.9886 35.2119 41.3378 35.8473 42.3768 35.8233C43.4461 35.806 44.1199 34.8669 44.7624 33.9057C45.2409 33.2272 45.6091 32.4774 45.8533 31.6839C45.2321 31.4212 44.7019 30.9813 44.329 30.4193C43.956 29.8573 43.7567 29.1979 43.756 28.5234Z" fill="white"/>
<path d="M41.7934 22.7114C42.3764 22.0115 42.6637 21.1119 42.5941 20.2036C41.7034 20.2972 40.8806 20.7229 40.2897 21.3959C40.0007 21.7248 39.7795 22.1073 39.6385 22.5217C39.4975 22.936 39.4395 23.3741 39.468 23.8109C39.9135 23.8155 40.3543 23.7189 40.7571 23.5285C41.1599 23.338 41.5142 23.0587 41.7934 22.7114Z" fill="white"/>
<path d="M56.3528 33.4368H52.9521L52.1355 35.8483H50.6951L53.9161 26.9266H55.4127L58.6337 35.8483H57.1688L56.3528 33.4368ZM53.3043 32.3241H55.9999L54.6711 28.4105H54.6339L53.3043 32.3241Z" fill="white"/>
<path d="M65.5903 32.5964C65.5903 34.6178 64.5084 35.9164 62.8758 35.9164C62.4622 35.9381 62.0509 35.8428 61.6889 35.6415C61.327 35.4403 61.029 35.1411 60.8292 34.7784H60.7983V38.0002H59.4631V29.3438H60.7555V30.4257H60.7801C60.9891 30.0647 61.2921 29.7671 61.6568 29.5646C62.0215 29.3621 62.4343 29.2623 62.8512 29.2757C64.502 29.2757 65.5903 30.5807 65.5903 32.5964ZM64.2179 32.5964C64.2179 31.2795 63.5374 30.4137 62.499 30.4137C61.4789 30.4137 60.7927 31.2978 60.7927 32.5964C60.7927 33.907 61.4789 34.7847 62.499 34.7847C63.5374 34.7847 64.2179 33.9253 64.2179 32.5964Z" fill="white"/>
<path d="M72.7494 32.5964C72.7494 34.6178 71.6676 35.9164 70.0349 35.9164C69.6214 35.938 69.2101 35.8428 68.8481 35.6415C68.4862 35.4403 68.1882 35.1411 67.9884 34.7784H67.9575V38.0002H66.6223V29.3438H67.9147V30.4257H67.9392C68.1483 30.0647 68.4512 29.7671 68.8159 29.5646C69.1807 29.3621 69.5934 29.2623 70.0104 29.2757C71.6613 29.2757 72.7494 30.5807 72.7494 32.5964ZM71.3771 32.5964C71.3771 31.2795 70.6965 30.4137 69.6582 30.4137C68.638 30.4137 67.9519 31.2978 67.9519 32.5964C67.9519 33.907 68.638 34.7847 69.6582 34.7847C70.6966 34.7847 71.3771 33.9253 71.3771 32.5964H71.3771Z" fill="white"/>
<path d="M77.481 33.3624C77.5799 34.2471 78.4394 34.828 79.6139 34.828C80.7393 34.828 81.5489 34.2471 81.5489 33.4494C81.5489 32.7569 81.0606 32.3423 79.9043 32.0581L78.7481 31.7796C77.1099 31.3839 76.3493 30.6177 76.3493 29.3745C76.3493 27.8351 77.6908 26.7778 79.5956 26.7778C81.4808 26.7778 82.7732 27.8351 82.8167 29.3745H81.4689C81.3882 28.4841 80.6522 27.9467 79.5767 27.9467C78.5011 27.9467 77.7651 28.4905 77.7651 29.2819C77.7651 29.9126 78.2352 30.2838 79.3851 30.5679L80.3681 30.8092C82.1986 31.2421 82.9591 31.9774 82.9591 33.2824C82.9591 34.9515 81.6296 35.9969 79.5149 35.9969C77.5364 35.9969 76.2006 34.9761 76.1143 33.3624L77.481 33.3624Z" fill="white"/>
<path d="M85.8407 27.8044V29.3438H87.0776V30.4011H85.8407V33.987C85.8407 34.5441 86.0884 34.8036 86.6321 34.8036C86.7789 34.8011 86.9255 34.7908 87.0713 34.7728V35.8238C86.8268 35.8694 86.5784 35.8901 86.3297 35.8855C85.0128 35.8855 84.4992 35.3909 84.4992 34.1294V30.4011H83.5535V29.3438H84.4992V27.8044H85.8407Z" fill="white"/>
<path d="M87.7939 32.5963C87.7939 30.5497 88.9993 29.2637 90.8789 29.2637C92.7648 29.2637 93.9646 30.5497 93.9646 32.5963C93.9646 34.6485 92.7711 35.9289 90.8789 35.9289C88.9873 35.9289 87.7939 34.6485 87.7939 32.5963ZM92.6041 32.5963C92.6041 31.1924 91.9608 30.3638 90.8789 30.3638C89.797 30.3638 89.1544 31.1987 89.1544 32.5963C89.1544 34.0058 89.797 34.8281 90.8789 34.8281C91.9608 34.8281 92.6041 34.0058 92.6041 32.5963H92.6041Z" fill="white"/>
<path d="M95.0654 29.3437H96.3388V30.4509H96.3697C96.4559 30.1051 96.6585 29.7995 96.9434 29.5855C97.2283 29.3715 97.5782 29.2621 97.9343 29.2757C98.0882 29.2751 98.2416 29.2918 98.3918 29.3255V30.5743C98.1975 30.515 97.9949 30.4877 97.7919 30.4937C97.5979 30.4858 97.4045 30.52 97.225 30.5939C97.0455 30.6678 96.8842 30.7797 96.752 30.9219C96.6198 31.0641 96.52 31.2331 96.4593 31.4175C96.3987 31.602 96.3786 31.7973 96.4006 31.9902V35.8483H95.0654L95.0654 29.3437Z" fill="white"/>
<path d="M104.548 33.9378C104.368 35.1186 103.218 35.9289 101.747 35.9289C99.8547 35.9289 98.6802 34.6611 98.6802 32.6272C98.6802 30.5869 99.861 29.2637 101.691 29.2637C103.49 29.2637 104.622 30.4999 104.622 32.4721V32.9296H100.028V33.0102C100.007 33.2496 100.037 33.4908 100.116 33.7177C100.195 33.9446 100.322 34.1521 100.487 34.3263C100.653 34.5006 100.853 34.6376 101.076 34.7284C101.298 34.8191 101.538 34.8615 101.778 34.8526C102.093 34.8822 102.41 34.8091 102.681 34.6443C102.951 34.4795 103.161 34.2317 103.28 33.9378L104.548 33.9378ZM100.034 31.9964H103.286C103.298 31.7812 103.266 31.5658 103.19 31.3637C103.115 31.1617 102.999 30.9774 102.849 30.8224C102.699 30.6674 102.519 30.545 102.32 30.4629C102.12 30.3809 101.906 30.3409 101.691 30.3455C101.473 30.3442 101.258 30.386 101.057 30.4685C100.855 30.5509 100.673 30.6724 100.519 30.8258C100.365 30.9793 100.242 31.1618 100.159 31.3627C100.076 31.5636 100.034 31.779 100.034 31.9964V31.9964Z" fill="white"/>
<path d="M53.1371 20.2112C53.417 20.1911 53.6979 20.2334 53.9595 20.335C54.221 20.4366 54.4568 20.595 54.6498 20.7988C54.8428 21.0025 54.9881 21.2466 55.0753 21.5133C55.1625 21.7801 55.1895 22.0628 55.1542 22.3412C55.1542 23.7108 54.414 24.498 53.1371 24.498H51.5886V20.2112H53.1371ZM52.2544 23.8917H53.0627C53.2627 23.9037 53.4629 23.8709 53.6486 23.7957C53.8344 23.7206 54.001 23.605 54.1364 23.4573C54.2719 23.3096 54.3726 23.1336 54.4315 22.942C54.4903 22.7505 54.5056 22.5482 54.4764 22.35C54.5035 22.1525 54.4866 21.9515 54.4269 21.7614C54.3672 21.5712 54.2661 21.3966 54.131 21.2501C53.9959 21.1036 53.8301 20.9888 53.6454 20.9139C53.4607 20.839 53.2617 20.8059 53.0627 20.817H52.2544V23.8917Z" fill="white"/>
<path d="M55.9064 22.8791C55.886 22.6665 55.9104 22.452 55.9778 22.2494C56.0452 22.0467 56.1542 21.8604 56.2979 21.7023C56.4415 21.5443 56.6166 21.418 56.8119 21.3316C57.0072 21.2452 57.2185 21.2006 57.432 21.2006C57.6456 21.2006 57.8568 21.2452 58.0521 21.3316C58.2474 21.418 58.4225 21.5443 58.5662 21.7023C58.7098 21.8604 58.8188 22.0467 58.8863 22.2494C58.9537 22.452 58.978 22.6665 58.9577 22.8791C58.9784 23.0919 58.9544 23.3067 58.8871 23.5097C58.8199 23.7127 58.7109 23.8994 58.5672 24.0577C58.4235 24.2161 58.2483 24.3426 58.0528 24.4292C57.8573 24.5158 57.6459 24.5605 57.432 24.5605C57.2182 24.5605 57.0067 24.5158 56.8112 24.4292C56.6157 24.3426 56.4405 24.2161 56.2968 24.0577C56.1531 23.8994 56.0442 23.7127 55.9769 23.5097C55.9097 23.3067 55.8857 23.0919 55.9064 22.8791ZM58.301 22.8791C58.301 22.1779 57.9859 21.7678 57.4331 21.7678C56.8781 21.7678 56.5659 22.1779 56.5659 22.8791C56.5659 23.586 56.8781 23.9929 57.4331 23.9929C57.9859 23.9929 58.301 23.5832 58.301 22.8791H58.301Z" fill="white"/>
<path d="M63.0135 24.498H62.3512L61.6825 22.1154H61.632L60.9662 24.498H60.3102L59.4185 21.2629H60.066L60.6456 23.7315H60.6933L61.3584 21.2629H61.9709L62.636 23.7315H62.6865L63.2632 21.2629H63.9017L63.0135 24.498Z" fill="white"/>
<path d="M64.6516 21.263H65.2662V21.7769H65.3139C65.3949 21.5924 65.5314 21.4376 65.7044 21.3343C65.8775 21.231 66.0785 21.1842 66.2793 21.2006C66.4367 21.1887 66.5948 21.2125 66.7418 21.27C66.8888 21.3276 67.0209 21.4174 67.1285 21.533C67.236 21.6486 67.3162 21.7868 67.363 21.9376C67.4099 22.0883 67.4222 22.2477 67.3991 22.4038V24.4981H66.7606V22.5641C66.7606 22.0443 66.5347 21.7857 66.0625 21.7857C65.9557 21.7807 65.849 21.7989 65.7498 21.839C65.6506 21.8791 65.5613 21.9402 65.4879 22.0181C65.4145 22.096 65.3589 22.1888 65.3247 22.2902C65.2906 22.3916 65.2787 22.4991 65.2901 22.6055V24.4981H64.6516L64.6516 21.263Z" fill="white"/>
<path d="M68.4165 20H69.055V24.498H68.4165V20Z" fill="white"/>
<path d="M69.9425 22.8789C69.9222 22.6663 69.9465 22.4518 70.014 22.2491C70.0814 22.0465 70.1904 21.8602 70.3341 21.7021C70.4778 21.5441 70.6529 21.4178 70.8482 21.3314C71.0435 21.245 71.2547 21.2003 71.4683 21.2003C71.6819 21.2003 71.8931 21.245 72.0885 21.3314C72.2838 21.4178 72.4589 21.5441 72.6025 21.7021C72.7462 21.8602 72.8552 22.0465 72.9227 22.2491C72.9901 22.4518 73.0145 22.6663 72.9941 22.8789C73.0148 23.0918 72.9908 23.3066 72.9235 23.5095C72.8563 23.7125 72.7473 23.8992 72.6036 24.0575C72.4599 24.2159 72.2846 24.3424 72.0891 24.429C71.8936 24.5156 71.6821 24.5603 71.4683 24.5603C71.2545 24.5603 71.043 24.5156 70.8475 24.429C70.652 24.3424 70.4768 24.2159 70.3331 24.0575C70.1894 23.8992 70.0804 23.7125 70.0131 23.5095C69.9459 23.3066 69.9218 23.0918 69.9425 22.8789ZM72.3371 22.8789C72.3371 22.1777 72.022 21.7676 71.4692 21.7676C70.9142 21.7676 70.602 22.1777 70.602 22.8789C70.602 23.5858 70.9142 23.9927 71.4692 23.9927C72.0221 23.9927 72.3371 23.583 72.3371 22.8789H72.3371Z" fill="white"/>
<path d="M73.6663 23.5832C73.6663 23.0009 74.0999 22.6652 74.8695 22.6174L75.7458 22.5669V22.2877C75.7458 21.946 75.5199 21.7531 75.0835 21.7531C74.7271 21.7531 74.4801 21.8839 74.4093 22.1126H73.7911C73.8564 21.557 74.3791 21.2006 75.113 21.2006C75.924 21.2006 76.3815 21.6043 76.3815 22.2877V24.4981H75.7669V24.0435H75.7163C75.6138 24.2065 75.4698 24.3395 75.2991 24.4287C75.1284 24.518 74.9371 24.5603 74.7446 24.5514C74.6088 24.5655 74.4716 24.551 74.3417 24.5089C74.2118 24.4667 74.0922 24.3978 73.9906 24.3066C73.889 24.2153 73.8077 24.1038 73.7518 23.9792C73.6959 23.8547 73.6668 23.7197 73.6663 23.5832ZM75.7458 23.3068V23.0363L74.9558 23.0868C74.5103 23.1166 74.3082 23.2682 74.3082 23.5534C74.3082 23.8445 74.5608 24.014 74.9081 24.014C75.0099 24.0243 75.1127 24.014 75.2104 23.9838C75.3081 23.9535 75.3987 23.9039 75.4769 23.838C75.555 23.772 75.6191 23.6909 75.6653 23.5997C75.7115 23.5084 75.7389 23.4088 75.7458 23.3068Z" fill="white"/>
<path d="M77.2205 22.879C77.2205 21.8568 77.746 21.2092 78.5633 21.2092C78.7655 21.1999 78.9662 21.2483 79.1418 21.3488C79.3175 21.4493 79.461 21.5978 79.5554 21.7768H79.6031V20H80.2416V24.498H79.6298V23.9869H79.5793C79.4775 24.1647 79.3291 24.3113 79.15 24.4107C78.9709 24.5102 78.7681 24.5588 78.5633 24.5513C77.7404 24.5513 77.2205 23.9037 77.2205 22.879ZM77.88 22.879C77.88 23.5652 78.2034 23.9781 78.7444 23.9781C79.2825 23.9781 79.6151 23.5593 79.6151 22.8819C79.6151 22.2076 79.279 21.7828 78.7444 21.7828C78.2069 21.7828 77.88 22.1985 77.88 22.879H77.88Z" fill="white"/>
<path d="M82.8834 22.8791C82.8631 22.6665 82.8874 22.452 82.9548 22.2494C83.0223 22.0467 83.1313 21.8604 83.2749 21.7023C83.4186 21.5443 83.5937 21.418 83.789 21.3316C83.9843 21.2452 84.1955 21.2006 84.4091 21.2006C84.6226 21.2006 84.8339 21.2452 85.0292 21.3316C85.2245 21.418 85.3996 21.5443 85.5432 21.7023C85.6869 21.8604 85.7959 22.0467 85.8633 22.2494C85.9307 22.452 85.9551 22.6665 85.9347 22.8791C85.9554 23.0919 85.9314 23.3067 85.8642 23.5097C85.7969 23.7127 85.688 23.8994 85.5443 24.0577C85.4006 24.2161 85.2254 24.3426 85.0299 24.4292C84.8344 24.5158 84.6229 24.5605 84.4091 24.5605C84.1953 24.5605 83.9838 24.5158 83.7883 24.4292C83.5928 24.3426 83.4176 24.2161 83.2739 24.0577C83.1302 23.8994 83.0212 23.7127 82.954 23.5097C82.8867 23.3067 82.8627 23.0919 82.8834 22.8791ZM85.278 22.8791C85.278 22.1779 84.963 21.7678 84.4101 21.7678C83.8552 21.7678 83.543 22.1779 83.543 22.8791C83.543 23.586 83.8552 23.9929 84.4101 23.9929C84.963 23.9929 85.278 23.5832 85.278 22.8791Z" fill="white"/>
<path d="M86.7913 21.263H87.4059V21.7769H87.4536C87.5345 21.5924 87.671 21.4376 87.8441 21.3343C88.0171 21.231 88.2181 21.1842 88.419 21.2006C88.5764 21.1887 88.7345 21.2125 88.8814 21.27C89.0284 21.3276 89.1606 21.4174 89.2681 21.533C89.3757 21.6486 89.4558 21.7868 89.5027 21.9376C89.5495 22.0883 89.5618 22.2477 89.5387 22.4038V24.4981H88.9003V22.5641C88.9003 22.0443 88.6744 21.7857 88.2022 21.7857C88.0953 21.7807 87.9886 21.7989 87.8894 21.839C87.7903 21.8791 87.7009 21.9402 87.6275 22.0181C87.5542 22.096 87.4985 22.1888 87.4644 22.2902C87.4302 22.3916 87.4184 22.4991 87.4297 22.6055V24.4981H86.7913V21.263Z" fill="white"/>
<path d="M93.1461 20.4573V21.2774H93.8471V21.8152H93.1461V23.4787C93.1461 23.8176 93.2858 23.966 93.6036 23.966C93.685 23.9657 93.7662 23.9608 93.8471 23.9513V24.4831C93.7324 24.5036 93.6162 24.5145 93.4998 24.5157C92.7897 24.5157 92.507 24.2659 92.507 23.6422V21.8152H91.9934V21.2774H92.507V20.4573H93.1461Z" fill="white"/>
<path d="M94.7195 20H95.3523V21.7828H95.4028C95.4877 21.5965 95.628 21.4409 95.8045 21.3372C95.981 21.2335 96.1852 21.1867 96.3893 21.2033C96.5459 21.1947 96.7024 21.2209 96.8477 21.2798C96.993 21.3388 97.1236 21.4291 97.23 21.5442C97.3364 21.6594 97.4161 21.7967 97.4634 21.9462C97.5106 22.0958 97.5243 22.2539 97.5034 22.4093V24.498H96.8643V22.5668C96.8643 22.0501 96.6236 21.7884 96.1725 21.7884C96.0628 21.7794 95.9524 21.7945 95.8491 21.8326C95.7458 21.8707 95.6521 21.9309 95.5745 22.009C95.4969 22.0872 95.4374 22.1813 95.4 22.2849C95.3625 22.3884 95.3482 22.4989 95.358 22.6086V24.498H94.7195L94.7195 20Z" fill="white"/>
<path d="M101.226 23.6244C101.139 23.9201 100.951 24.1758 100.695 24.3469C100.439 24.518 100.13 24.5936 99.8241 24.5603C99.611 24.566 99.3992 24.5252 99.2034 24.4407C99.0076 24.3563 98.8326 24.2302 98.6904 24.0714C98.5482 23.9125 98.4423 23.7246 98.38 23.5207C98.3177 23.3168 98.3006 23.1017 98.3297 22.8905C98.3013 22.6787 98.3188 22.4632 98.3809 22.2587C98.4431 22.0542 98.5484 21.8654 98.6899 21.7051C98.8313 21.5448 99.0055 21.4168 99.2007 21.3298C99.3959 21.2427 99.6076 21.1985 99.8213 21.2004C100.721 21.2004 101.265 21.8154 101.265 22.8312V23.054H98.9801V23.0898C98.9701 23.2085 98.985 23.328 99.0239 23.4406C99.0628 23.5532 99.1248 23.6565 99.2059 23.7438C99.287 23.831 99.3855 23.9004 99.495 23.9473C99.6044 23.9943 99.7225 24.0179 99.8417 24.0166C99.9944 24.0349 100.149 24.0074 100.286 23.9376C100.423 23.8677 100.536 23.7587 100.611 23.6244L101.226 23.6244ZM98.9801 22.5818H100.614C100.622 22.4733 100.607 22.3642 100.571 22.2617C100.534 22.1591 100.477 22.0654 100.402 21.9865C100.327 21.9075 100.236 21.8452 100.135 21.8034C100.035 21.7616 99.9266 21.7413 99.8178 21.7438C99.7074 21.7424 99.5978 21.7631 99.4955 21.8047C99.3932 21.8464 99.3003 21.9081 99.2222 21.9862C99.1442 22.0643 99.0825 22.1572 99.0409 22.2595C98.9993 22.3618 98.9787 22.4714 98.9801 22.5818H98.9801Z" fill="white"/>
</g>
<defs>
<filter id="filter0_d_205_886" x="0.5" y="-1.125" width="137" height="69" filterUnits="userSpaceOnUse" color-interpolation-filters="sRGB">
<feFlood flood-opacity="0" result="BackgroundImageFix"/>
<feColorMatrix in="SourceAlpha" type="matrix" values="0 0 0 0 0 0 0 0 0 0 0 0 0 0 0 0 0 0 127 0" result="hardAlpha"/>
<feOffset dy="4.375"/>
<feGaussianBlur stdDeviation="8.75"/>
<feColorMatrix type="matrix" values="0 0 0 0 0.0745098 0 0 0 0 0.305882 0 0 0 0 0.290196 0 0 0 0.18 0"/>
<feBlend mode="normal" in2="BackgroundImageFix" result="effect1_dropShadow_205_886"/>
<feBlend mode="normal" in="SourceGraphic" in2="effect1_dropShadow_205_886" result="shape"/>
</filter>
</defs>
</svg>
